<?xml version="1.0" standalone="no"?>
<!DOCTYPE svg PUBLIC "-//W3C//DTD SVG 20010904//EN"
 "http://www.w3.org/TR/2001/REC-SVG-20010904/DTD/svg10.dtd">
<svg version="1.0" xmlns="http://www.w3.org/2000/svg"
 width="700.000000pt" height="700.000000pt" viewBox="0 0 700.000000 700.000000"
 preserveAspectRatio="xMidYMid meet">
<metadata>
Created by potrace 1.11, written by Peter Selinger 2001-2013
</metadata>
<g transform="translate(0.000000,700.000000) scale(0.100000,-0.100000)"
fill="#000000" stroke="none">
<path d="M5615 4971 c-132 -264 -237 -482 -235 -484 3 -3 109 -16 235 -30 165
-17 232 -21 237 -13 4 6 8 200 8 432 0 232 3 455 6 497 4 44 3 77 -2 77 -5 0
-117 -216 -249 -479z"/>
<path d="M4365 4997 c-2 -6 -6 -333 -8 -726 l-6 -714 39 39 c22 21 206 215
409 429 344 363 368 391 353 406 -51 50 -783 577 -787 566z"/>
<path d="M700 4445 c0 -3 254 -266 564 -583 l564 -577 304 -49 c166 -27 310
-51 318 -53 11 -3 38 61 113 273 82 229 96 279 85 289 -47 45 -684 526 -702
530 -11 3 -282 41 -601 85 -319 44 -595 83 -612 86 -18 4 -33 3 -33 -1z"/>
<path d="M5506 4278 c33 -35 150 -157 259 -273 277 -292 377 -396 381 -392 5
4 -264 669 -274 678 -6 6 -369 49 -412 49 -8 0 13 -28 46 -62z"/>
<path d="M5003 4048 c-423 -445 -558 -588 -561 -596 -1 -4 366 -24 815 -45
450 -21 842 -40 871 -44 28 -3 52 -1 52 4 0 6 -646 693 -894 951 -11 11 -61
-37 -283 -270z"/>
<path d="M2816 3771 c-21 -61 -35 -115 -31 -121 4 -6 434 -527 957 -1158 l949
-1147 44 -7 c23 -3 81 -9 129 -13 l86 -7 -14 38 c-7 22 -172 483 -365 1026
l-351 987 0 115 c0 64 -2 116 -3 116 -2 0 -308 63 -681 140 -372 77 -677 140
-679 140 -2 0 -20 -49 -41 -109z"/>
<path d="M2470 2800 c-139 -391 -251 -712 -249 -715 7 -6 1459 259 1459 267 0
7 -897 1096 -940 1141 -16 17 -30 -20 -270 -693z"/>
<path d="M4385 3310 c-4 -8 298 -850 305 -850 7 0 441 277 452 288 7 8 43 520
37 527 -6 5 -791 41 -794 35z"/>
<path d="M4970 2479 c-85 -55 -156 -104 -158 -108 -2 -5 60 -55 138 -112 l141
-103 82 2 c45 1 119 5 164 8 l82 6 -137 204 c-75 112 -141 203 -147 203 -5 0
-80 -45 -165 -100z"/>
</g>
</svg>
